<?xml version="1.0" standalone="no"?>
 <!DOCTYPE svg PUBLIC "-//W3C//DTD SVG 1.1//EN" 
 "http://www.w3.org/Graphics/SVG/1.1/DTD/svg11.dtd"> 
<svg
  xmlns:svg="http://www.w3.org/2000/svg"
  xmlns="http://www.w3.org/2000/svg"
  xmlns:xlink="http://www.w3.org/1999/xlink"
  xmlns:inkscape="http://www.inkscape.org/namespaces/inkscape"
  version="1.1"
  width="10.4140mm" height="10.5410mm" viewBox="0.0000 0.0000 10.4140 10.5410">
<title>SVG Image created as Template_Crystal_2-Pin_unit1.svg date 2026-08-19T11:11:17 </title>
  <desc>Image generated by Eeschema-SVG </desc>
<g style="fill:#000000; fill-opacity:1.0000;stroke:#000000; stroke-opacity:1.0000;
stroke-linecap:round; stroke-linejoin:round;"
 transform="translate(0 0) scale(1 1)">
<path style="fill:none; 
stroke:#840000; stroke-width:0.1524; stroke-opacity:1; 
stroke-linecap:round; stroke-linejoin:round;fill:none"
d="M 2.5196,6.9751
3.0276,6.9751
" /> 
<path style="fill:none; 
stroke:#840000; stroke-width:0.5080; stroke-opacity:1; 
stroke-linecap:round; stroke-linejoin:round;fill:none"
d="M 3.0276,8.2451
3.0276,5.7051
" /> 
</g>
<g style="fill:none; 
stroke:#840000; stroke-width:0.3048; stroke-opacity:1; 
stroke-linecap:round; stroke-linejoin:round;">
<rect x="3.916600" y="4.435100" width="2.286000" height="5.080000" rx="0.000000" />
<path style="fill:none; 
stroke:#840000; stroke-width:0.1524; stroke-opacity:1; 
stroke-linecap:round; stroke-linejoin:round;fill:none"
d="M 7.0916,6.9751
7.5996,6.9751
" /> 
<path style="fill:none; 
stroke:#840000; stroke-width:0.5080; stroke-opacity:1; 
stroke-linecap:round; stroke-linejoin:round;fill:none"
d="M 7.0916,8.2451
7.0916,5.7051
" /> 
</g>
<g style="fill:none; 
stroke:#840000; stroke-width:0.1524; stroke-opacity:1; 
stroke-linecap:round; stroke-linejoin:round;">
<path d="M2.5196 6.9751
L1.2496 6.9751
" />
</g>
<g style="fill:none; 
stroke:#A90000; stroke-width:0.1524; stroke-opacity:1; 
stroke-linecap:round; stroke-linejoin:round;">
<text x="1.8846" y="6.6195"
textLength="1.4127" font-size="1.6933" lengthAdjust="spacingAndGlyphs"
text-anchor="middle" opacity="0" stroke-opacity="0">1</text>
<g class="stroked-text"><desc>1</desc>
<path d="M2.2475 6.4560
L1.5218 6.4560
" />
<path d="M1.8846 6.4560
L1.8846 5.1860
" />
<path d="M1.8846 5.1860
L1.7637 5.3675
" />
<path d="M1.7637 5.3675
L1.6427 5.4884
" />
<path d="M1.6427 5.4884
L1.5218 5.5489
" />
</g></g>
<g style="fill:none; 
stroke:#840000; stroke-width:0.1524; stroke-opacity:1; 
stroke-linecap:round; stroke-linejoin:round;">
<path d="M7.5996 6.9751
L8.8696 6.9751
" />
</g>
<g style="fill:none; 
stroke:#A90000; stroke-width:0.1524; stroke-opacity:1; 
stroke-linecap:round; stroke-linejoin:round;">
<text x="8.2346" y="6.6195"
textLength="1.4127" font-size="1.6933" lengthAdjust="spacingAndGlyphs"
text-anchor="middle" opacity="0" stroke-opacity="0">2</text>
<g class="stroked-text"><desc>2</desc>
<path d="M7.8718 5.3070
L7.9322 5.2465
" />
<path d="M7.9322 5.2465
L8.0532 5.1860
" />
<path d="M8.0532 5.1860
L8.3556 5.1860
" />
<path d="M8.3556 5.1860
L8.4765 5.2465
" />
<path d="M8.4765 5.2465
L8.5370 5.3070
" />
<path d="M8.5370 5.3070
L8.5975 5.4279
" />
<path d="M8.5975 5.4279
L8.5975 5.5489
" />
<path d="M8.5975 5.5489
L8.5370 5.7303
" />
<path d="M8.5370 5.7303
L7.8113 6.4560
" />
<path d="M7.8113 6.4560
L8.5975 6.4560
" />
</g></g>
<g style="fill:none; 
stroke:#006464; stroke-width:0.1524; stroke-opacity:1; 
stroke-linecap:round; stroke-linejoin:round;">
<text x="8.2346" y="2.5301"
textLength="2.3804" font-size="1.6933" lengthAdjust="spacingAndGlyphs"
text-anchor="start" opacity="0" stroke-opacity="0">Y?</text>
<g class="stroked-text"><desc>Y?</desc>
<path d="M8.8790 1.8699
L8.8790 2.4746
" />
<path d="M8.4557 1.2047
L8.8790 1.8699
" />
<path d="M8.8790 1.8699
L9.3024 1.2047
" />
<path d="M9.9072 2.3537
L9.9676 2.4142
" />
<path d="M9.9676 2.4142
L9.9072 2.4746
" />
<path d="M9.9072 2.4746
L9.8467 2.4142
" />
<path d="M9.8467 2.4142
L9.9072 2.3537
" />
<path d="M9.9072 2.3537
L9.9072 2.4746
" />
<path d="M9.6653 1.2652
L9.7862 1.2047
" />
<path d="M9.7862 1.2047
L10.0886 1.2047
" />
<path d="M10.0886 1.2047
L10.2095 1.2652
" />
<path d="M10.2095 1.2652
L10.2700 1.3862
" />
<path d="M10.2700 1.3862
L10.2700 1.5071
" />
<path d="M10.2700 1.5071
L10.2095 1.6281
" />
<path d="M10.2095 1.6281
L10.1491 1.6885
" />
<path d="M10.1491 1.6885
L10.0281 1.7489
" />
<path d="M10.0281 1.7489
L9.9676 1.8094
" />
<path d="M9.9676 1.8094
L9.9072 1.9303
" />
<path d="M9.9072 1.9303
L9.9072 1.9908
" />
</g></g> 
</svg>
