<?xml version="1.0" standalone="no"?>
 <!DOCTYPE svg PUBLIC "-//W3C//DTD SVG 1.1//EN" 
 "http://www.w3.org/Graphics/SVG/1.1/DTD/svg11.dtd"> 
<svg
  xmlns:svg="http://www.w3.org/2000/svg"
  xmlns="http://www.w3.org/2000/svg"
  xmlns:xlink="http://www.w3.org/1999/xlink"
  xmlns:inkscape="http://www.inkscape.org/namespaces/inkscape"
  version="1.1"
  width="10.0584mm" height="7.6454mm" viewBox="0.0000 0.0000 10.0584 7.6454">
<title>SVG Image created as TVS_Template_Unidirectional_unit1.svg date 2026-08-19T11:11:17 </title>
  <desc>Image generated by Eeschema-SVG </desc>
<g style="fill:#000000; fill-opacity:1.0000;stroke:#000000; stroke-opacity:1.0000;
stroke-linecap:round; stroke-linejoin:round;"
 transform="translate(0 0) scale(1 1)">
<path style="fill:none; 
stroke:#840000; stroke-width:0.2540; stroke-opacity:1; 
stroke-linecap:round; stroke-linejoin:round;fill:none"
d="M 4.2672,2.9242
3.7592,2.9242
3.7592,5.4642
" /> 
<path style="fill:none; 
stroke:#840000; stroke-width:0.2540; stroke-opacity:1; 
stroke-linecap:round; stroke-linejoin:round;fill:none"
d="M 6.2992,2.9242
6.2992,5.4642
3.7592,4.1942
Z" /> 
</g>
<g style="fill:none; 
stroke:#840000; stroke-width:0.1524; stroke-opacity:1; 
stroke-linecap:round; stroke-linejoin:round;">
<path d="M3.7592 4.1942
L1.2192 4.1942
" />
<path d="M6.2992 4.1942
L8.8392 4.1942
" />
</g>
<g style="fill:none; 
stroke:#006464; stroke-width:0.1524; stroke-opacity:1; 
stroke-linecap:round; stroke-linejoin:round;">
<text x="5.0292" y="2.2892"
textLength="2.5618" font-size="1.6933" lengthAdjust="spacingAndGlyphs"
text-anchor="middle" opacity="0" stroke-opacity="0">D?</text>
<g class="stroked-text"><desc>D?</desc>
<path d="M4.1522 2.2337
L4.1522 0.9637
" />
<path d="M4.1522 0.9637
L4.4546 0.9637
" />
<path d="M4.4546 0.9637
L4.6360 1.0242
" />
<path d="M4.6360 1.0242
L4.7570 1.1452
" />
<path d="M4.7570 1.1452
L4.8175 1.2661
" />
<path d="M4.8175 1.2661
L4.8779 1.5080
" />
<path d="M4.8779 1.5080
L4.8779 1.6894
" />
<path d="M4.8779 1.6894
L4.8175 1.9313
" />
<path d="M4.8175 1.9313
L4.7570 2.0523
" />
<path d="M4.7570 2.0523
L4.6360 2.1733
" />
<path d="M4.6360 2.1733
L4.4546 2.2337
" />
<path d="M4.4546 2.2337
L4.1522 2.2337
" />
<path d="M5.6037 2.1128
L5.6641 2.1733
" />
<path d="M5.6641 2.1733
L5.6037 2.2337
" />
<path d="M5.6037 2.2337
L5.5432 2.1733
" />
<path d="M5.5432 2.1733
L5.6037 2.1128
" />
<path d="M5.6037 2.1128
L5.6037 2.2337
" />
<path d="M5.3618 1.0242
L5.4827 0.9637
" />
<path d="M5.4827 0.9637
L5.7851 0.9637
" />
<path d="M5.7851 0.9637
L5.9060 1.0242
" />
<path d="M5.9060 1.0242
L5.9665 1.1452
" />
<path d="M5.9665 1.1452
L5.9665 1.2661
" />
<path d="M5.9665 1.2661
L5.9060 1.3871
" />
<path d="M5.9060 1.3871
L5.8456 1.4475
" />
<path d="M5.8456 1.4475
L5.7246 1.5080
" />
<path d="M5.7246 1.5080
L5.6641 1.5685
" />
<path d="M5.6641 1.5685
L5.6037 1.6894
" />
<path d="M5.6037 1.6894
L5.6037 1.7499
" />
</g></g> 
</svg>
